<?xml version="1.0" encoding="UTF-8" standalone="no"?>
<!-- Created with Inkscape (http://www.inkscape.org/) -->

<svg
   width="210mm"
   height="297mm"
   viewBox="0 0 210 297"
   version="1.1"
   id="svg5"
   inkscape:version="1.1 (c68e22c387, 2021-05-23)"
   sodipodi:docname="dice.svg"
   xmlns:inkscape="http://www.inkscape.org/namespaces/inkscape"
   xmlns:sodipodi="http://sodipodi.sourceforge.net/DTD/sodipodi-0.dtd"
   xmlns="http://www.w3.org/2000/svg"
   xmlns:svg="http://www.w3.org/2000/svg">
  <sodipodi:namedview
     id="namedview7"
     pagecolor="#ffffff"
     bordercolor="#666666"
     borderopacity="1.0"
     inkscape:pageshadow="2"
     inkscape:pageopacity="0.0"
     inkscape:pagecheckerboard="0"
     inkscape:document-units="mm"
     showgrid="false"
     inkscape:zoom="1.2598564"
     inkscape:cx="262.72836"
     inkscape:cy="115.88623"
     inkscape:window-width="1366"
     inkscape:window-height="705"
     inkscape:window-x="-8"
     inkscape:window-y="-8"
     inkscape:window-maximized="1"
     inkscape:current-layer="layer1" />
  <defs
     id="defs2" />
  <g
     inkscape:label="Layer 1"
     inkscape:groupmode="layer"
     id="layer1">
    <path
       style="fill:#ff9955;stroke:#000000;stroke-width:0.264583px;stroke-linecap:butt;stroke-linejoin:miter;stroke-opacity:1"
       d="m 19.243489,10.148957 c 4.338081,0.338554 8.607213,-0.1485 12.919501,-0.1485 2.384663,0 8.715271,-1.1368629 10.988997,0 2.103049,1.051524 3.174111,22.544196 2.524501,22.868998 -3.930224,1.965114 -28.066499,4.25586 -28.066499,0.297001 0,-5.99693 -3.766772,-20.317363 1.6335,-23.017499 z"
       id="path42" />
    <g
       id="g2570"
       style="fill:#ffffff">
      <ellipse
         style="fill:#ffffff;fill-opacity:0.943548;fill-rule:evenodd;stroke:#000000;stroke-width:0.35277778;stroke-linecap:square;paint-order:fill markers stroke;stroke-miterlimit:4;stroke-dasharray:none"
         id="path68"
         cx="39.946499"
         cy="17.077497"
         rx="1.6335"
         ry="1.485" />
      <ellipse
         style="fill:#ffffff;fill-opacity:0.943548;fill-rule:evenodd;stroke:#000000;stroke-width:0.35277778;stroke-linecap:square;paint-order:fill markers stroke;stroke-miterlimit:4;stroke-dasharray:none"
         id="ellipse70"
         cx="31.70475"
         cy="17.077497"
         rx="1.6335"
         ry="1.485" />
      <ellipse
         style="fill:#ffffff;fill-opacity:0.943548;fill-rule:evenodd;stroke:#000000;stroke-width:0.35277778;stroke-linecap:square;paint-order:fill markers stroke;stroke-miterlimit:4;stroke-dasharray:none"
         id="ellipse152"
         cx="23.462999"
         cy="17.077497"
         rx="1.6335"
         ry="1.485" />
      <ellipse
         style="fill:#ffffff;fill-opacity:0.943548;fill-rule:evenodd;stroke:#000000;stroke-width:0.352778;stroke-linecap:square;stroke-miterlimit:4;stroke-dasharray:none;paint-order:fill markers stroke"
         id="path68-6"
         cx="39.87225"
         cy="27.918001"
         rx="1.6335"
         ry="1.485" />
      <ellipse
         style="fill:#ffffff;fill-opacity:0.943548;fill-rule:evenodd;stroke:#000000;stroke-width:0.352778;stroke-linecap:square;stroke-miterlimit:4;stroke-dasharray:none;paint-order:fill markers stroke"
         id="ellipse70-9"
         cx="31.630499"
         cy="27.918001"
         rx="1.6335"
         ry="1.485" />
      <ellipse
         style="fill:#ffffff;fill-opacity:0.943548;fill-rule:evenodd;stroke:#000000;stroke-width:0.352778;stroke-linecap:square;stroke-miterlimit:4;stroke-dasharray:none;paint-order:fill markers stroke"
         id="ellipse152-3"
         cx="23.38875"
         cy="27.918001"
         rx="1.6335"
         ry="1.485" />
    </g>
    <path
       style="fill:#ffccaa;stroke:#000000;stroke-width:0.264583px;stroke-linecap:butt;stroke-linejoin:miter;stroke-opacity:1"
       d="m 65.636999,10.692 c 0,2.673 0,5.346 0,8.019 0,16.742515 5.218554,11.7315 20.196,11.7315 1.5054,0 7.827587,0.80857 8.1675,-0.891 0.68444,-3.422199 -0.364448,-7.248735 -0.594,-10.692 -0.998482,-14.9772341 -4.184291,-10.3521098 -18.414,-9.0585 -3.242588,0.29478 -7.85813,-1.2086143 -9.6525,1.782"
       id="path1671" />
    <path
       style="fill:#ff9955;stroke:#000000;stroke-width:0.264583px;stroke-linecap:butt;stroke-linejoin:miter;stroke-opacity:1"
       d="m 116.127,7.4249999 c -1.39011,20.7462271 -3.85009,17.9912731 9.504,19.8989991 1.66721,0.238173 10.94854,1.525458 12.177,0.297 1.91713,-1.917133 3.42949,-19.5207552 0.297,-21.0869991 -5.10117,-2.5505867 -15.46946,1.8207913 -21.978,0.891 z"
       id="path1681" />
    <path
       style="fill:#ff9955;stroke:#000000;stroke-width:0.264583px;stroke-linecap:butt;stroke-linejoin:miter;stroke-opacity:1"
       d="m 116.424,49.302 c -0.099,4.355999 -0.37084,8.711501 -0.297,13.067998 0.0422,2.489298 -0.27548,9.532699 1.485,11.880001 1.73194,2.309251 20.3709,1.62361 20.79,-0.891001 0.69995,-4.199731 3.35815,-19.419694 1.485,-23.165998 -2.79343,-5.586849 -21.31539,-4.112413 -24.651,0.891"
       id="path1683" />
    <path
       style="fill:#ffe6d5;stroke:#000000;stroke-width:0.264583px;stroke-linecap:butt;stroke-linejoin:miter;stroke-opacity:1"
       d="m 69.093524,51.662636 c 5.899123,-0.771816 11.730765,-0.840044 17.6409,-0.840044 1.037151,0 7.778951,-1.251511 8.820449,-0.21001 0.224859,0.224856 -2.150348,25.331412 -2.730138,25.621308 -2.978927,1.489461 -21.865161,0.80397 -23.941222,-2.31012 -2.33458,-3.501869 -2.534613,-19.516513 0.210011,-22.261134 z"
       id="path1914" />
    <path
       style="fill:#ffb380;stroke:#000000;stroke-width:0.264583px;stroke-linecap:butt;stroke-linejoin:miter;stroke-opacity:1"
       d="m 17.85091,53.762743 c 6.106812,-1.012055 12.004392,0.168235 18.060922,0 0.197839,-0.0055 9.236308,-1.272556 9.450483,-0.630034 0.70563,2.116891 -0.343353,22.96034 -1.470076,23.101181 -2.031918,0.253989 -26.537989,-0.153279 -27.091382,-1.260065 -1.139013,-2.278026 -0.210011,-6.684854 -0.210011,-9.240473 0,-4.000748 -1.324381,-8.869275 1.260064,-11.970609 z"
       id="path1916" />
    <g
       id="g2475"
       style="fill:#ffffff">
      <ellipse
         style="fill:#ffffff;fill-opacity:0.943548;fill-rule:evenodd;stroke:#000000;stroke-width:0.352778;stroke-linecap:square;stroke-miterlimit:4;stroke-dasharray:none;paint-order:fill markers stroke"
         id="ellipse1998"
         cx="86.988899"
         cy="14.97739"
         rx="1.6335"
         ry="1.485" />
      <ellipse
         style="fill:#ffffff;fill-opacity:0.943548;fill-rule:evenodd;stroke:#000000;stroke-width:0.352778;stroke-linecap:square;stroke-miterlimit:4;stroke-dasharray:none;paint-order:fill markers stroke"
         id="ellipse2000"
         cx="79.587196"
         cy="18.757584"
         rx="1.6335"
         ry="1.485" />
      <ellipse
         style="fill:#ffffff;fill-opacity:0.943548;fill-rule:evenodd;stroke:#000000;stroke-width:0.352778;stroke-linecap:square;stroke-miterlimit:4;stroke-dasharray:none;paint-order:fill markers stroke"
         id="ellipse2002"
         cx="70.505402"
         cy="14.97739"
         rx="1.6335"
         ry="1.485" />
      <ellipse
         style="fill:#ffffff;fill-opacity:0.943548;fill-rule:evenodd;stroke:#000000;stroke-width:0.352778;stroke-linecap:square;stroke-miterlimit:4;stroke-dasharray:none;paint-order:fill markers stroke"
         id="ellipse2004"
         cx="86.704636"
         cy="25.187862"
         rx="1.6335"
         ry="1.485" />
      <ellipse
         style="fill:#ffffff;fill-opacity:0.943548;fill-rule:evenodd;stroke:#000000;stroke-width:0.352778;stroke-linecap:square;stroke-miterlimit:4;stroke-dasharray:none;paint-order:fill markers stroke"
         id="ellipse2006"
         cx="73.212624"
         cy="26.027905"
         rx="1.6335"
         ry="1.485" />
    </g>
    <g
       id="g2481"
       style="fill:#ffffff">
      <ellipse
         style="fill:#ffffff;fill-opacity:0.943548;fill-rule:evenodd;stroke:#000000;stroke-width:0.352778;stroke-linecap:square;stroke-miterlimit:4;stroke-dasharray:none;paint-order:fill markers stroke"
         id="ellipse2034"
         cx="135.08136"
         cy="11.197197"
         rx="1.6335"
         ry="1.485" />
      <ellipse
         style="fill:#ffffff;fill-opacity:0.943548;fill-rule:evenodd;stroke:#000000;stroke-width:0.352778;stroke-linecap:square;stroke-miterlimit:4;stroke-dasharray:none;paint-order:fill markers stroke"
         id="ellipse2038"
         cx="118.59785"
         cy="11.197197"
         rx="1.6335"
         ry="1.485" />
      <ellipse
         style="fill:#ffffff;fill-opacity:0.943548;fill-rule:evenodd;stroke:#000000;stroke-width:0.352778;stroke-linecap:square;stroke-miterlimit:4;stroke-dasharray:none;paint-order:fill markers stroke"
         id="ellipse2040"
         cx="134.79709"
         cy="21.407669"
         rx="1.6335"
         ry="1.485" />
      <ellipse
         style="fill:#ffffff;fill-opacity:0.943548;fill-rule:evenodd;stroke:#000000;stroke-width:0.352778;stroke-linecap:square;stroke-miterlimit:4;stroke-dasharray:none;paint-order:fill markers stroke"
         id="ellipse2042"
         cx="121.30508"
         cy="22.247711"
         rx="1.6335"
         ry="1.485" />
    </g>
    <g
       id="g2490"
       style="fill:#ffffff">
      <ellipse
         style="fill:#ffffff;fill-opacity:0.943548;fill-rule:evenodd;stroke:#000000;stroke-width:0.352778;stroke-linecap:square;stroke-miterlimit:4;stroke-dasharray:none;paint-order:fill markers stroke"
         id="ellipse2124"
         cx="38.056412"
         cy="58.239597"
         rx="1.6335"
         ry="1.485" />
      <ellipse
         style="fill:#ffffff;fill-opacity:0.943548;fill-rule:evenodd;stroke:#000000;stroke-width:0.352778;stroke-linecap:square;stroke-miterlimit:4;stroke-dasharray:none;paint-order:fill markers stroke"
         id="ellipse2126"
         cx="21.572897"
         cy="58.239597"
         rx="1.6335"
         ry="1.485" />
      <ellipse
         style="fill:#ffffff;fill-opacity:0.943548;fill-rule:evenodd;stroke:#000000;stroke-width:0.352778;stroke-linecap:square;stroke-miterlimit:4;stroke-dasharray:none;paint-order:fill markers stroke"
         id="ellipse2128"
         cx="28.951691"
         cy="68.450066"
         rx="1.6335"
         ry="1.485" />
    </g>
    <g
       id="g2485"
       style="fill:#ffffff">
      <ellipse
         style="fill:#ffffff;fill-opacity:0.943548;fill-rule:evenodd;stroke:#000000;stroke-width:0.352778;stroke-linecap:square;stroke-miterlimit:4;stroke-dasharray:none;paint-order:fill markers stroke"
         id="ellipse2212"
         cx="88.24897"
         cy="62.859833"
         rx="1.6335"
         ry="1.485" />
      <ellipse
         style="fill:#ffffff;fill-opacity:0.943548;fill-rule:evenodd;stroke:#000000;stroke-width:0.352778;stroke-linecap:square;stroke-miterlimit:4;stroke-dasharray:none;paint-order:fill markers stroke"
         id="ellipse2214"
         cx="73.02552"
         cy="62.859833"
         rx="1.6335"
         ry="1.485" />
    </g>
    <ellipse
       style="fill:#ffffff;fill-opacity:0.943548;fill-rule:evenodd;stroke:#000000;stroke-width:0.352778;stroke-linecap:square;stroke-miterlimit:4;stroke-dasharray:none;paint-order:fill markers stroke"
       id="ellipse2216"
       cx="128.36102"
       cy="62.019791"
       rx="1.6335"
       ry="1.485" />
  </g>
</svg>
